<mxfile host="app.diagrams.net" modified="2024-04-09T07:31:36.795Z" agent="Mozilla/5.0 (Windows NT 10.0; Win64; x64) AppleWebKit/537.36 (KHTML, like Gecko) Chrome/123.0.0.0 Safari/537.36 Edg/123.0.0.0" etag="Bey2W5xnRdgmexniHmVP" version="24.2.3" type="github">
  <diagram id="C5RBs43oDa-KdzZeNtuy" name="Page-1">
    <mxGraphModel dx="786" dy="1636" grid="1" gridSize="10" guides="1" tooltips="1" connect="1" arrows="1" fold="1" page="1" pageScale="1" pageWidth="827" pageHeight="1169" background="none" math="0" shadow="0">
      <root>
        <mxCell id="WIyWlLk6GJQsqaUBKTNV-0" />
        <mxCell id="WIyWlLk6GJQsqaUBKTNV-1" parent="WIyWlLk6GJQsqaUBKTNV-0" />
        <mxCell id="WIyWlLk6GJQsqaUBKTNV-3" value="App()" style="rounded=1;whiteSpace=wrap;html=1;fontSize=12;glass=0;strokeWidth=1;shadow=0;labelBackgroundColor=none;fillColor=#09555B;strokeColor=#BAC8D3;fontColor=#EEEEEE;" parent="WIyWlLk6GJQsqaUBKTNV-1" vertex="1">
          <mxGeometry x="350" y="-140" width="100" height="40" as="geometry" />
        </mxCell>
        <mxCell id="xIwj9q6JZ-F3hwhgHABG-2" value="" style="edgeStyle=orthogonalEdgeStyle;rounded=0;orthogonalLoop=1;jettySize=auto;html=1;" edge="1" parent="WIyWlLk6GJQsqaUBKTNV-1" source="HDo8_8Wthwif_60VlXAR-14" target="xIwj9q6JZ-F3hwhgHABG-1">
          <mxGeometry relative="1" as="geometry" />
        </mxCell>
        <mxCell id="HDo8_8Wthwif_60VlXAR-14" value="&amp;lt;FriendList /&amp;gt;" style="rounded=1;whiteSpace=wrap;html=1;" vertex="1" parent="WIyWlLk6GJQsqaUBKTNV-1">
          <mxGeometry x="130" y="100" width="100" height="40" as="geometry" />
        </mxCell>
        <mxCell id="HDo8_8Wthwif_60VlXAR-15" value="&amp;lt;FormAddFriend /&amp;gt;" style="rounded=1;whiteSpace=wrap;html=1;" vertex="1" parent="WIyWlLk6GJQsqaUBKTNV-1">
          <mxGeometry x="260" y="100" width="130" height="40" as="geometry" />
        </mxCell>
        <mxCell id="HDo8_8Wthwif_60VlXAR-16" value="&amp;lt;Button /&amp;gt;" style="rounded=1;whiteSpace=wrap;html=1;" vertex="1" parent="WIyWlLk6GJQsqaUBKTNV-1">
          <mxGeometry x="470" y="100" width="130" height="40" as="geometry" />
        </mxCell>
        <mxCell id="xIwj9q6JZ-F3hwhgHABG-0" value="&amp;lt;FormSplitBill /&amp;gt;" style="rounded=1;whiteSpace=wrap;html=1;" vertex="1" parent="WIyWlLk6GJQsqaUBKTNV-1">
          <mxGeometry x="630" y="100" width="130" height="40" as="geometry" />
        </mxCell>
        <mxCell id="xIwj9q6JZ-F3hwhgHABG-1" value="Props Used :-&amp;nbsp;&lt;div&gt;&lt;ul&gt;&lt;li&gt;&lt;div&gt;&lt;font color=&quot;#140505&quot;&gt;friends={friends}&lt;/font&gt;&lt;/div&gt;&lt;/li&gt;&lt;li&gt;&lt;div&gt;&lt;font color=&quot;#140505&quot;&gt;onSelection-{handleSelection}&lt;/font&gt;&lt;/div&gt;&lt;/li&gt;&lt;li&gt;&lt;div&gt;&lt;font color=&quot;#140505&quot;&gt;slectedFriend = {selectedFriend&lt;/font&gt;&lt;/div&gt;&lt;/li&gt;&lt;/ul&gt;&lt;/div&gt;" style="whiteSpace=wrap;html=1;rounded=1;align=left;" vertex="1" parent="WIyWlLk6GJQsqaUBKTNV-1">
          <mxGeometry x="10" y="170" width="230" height="100" as="geometry" />
        </mxCell>
        <mxCell id="xIwj9q6JZ-F3hwhgHABG-4" value="&lt;span style=&quot;font-size: 16px;&quot;&gt;States Used :-&amp;nbsp;&lt;/span&gt;&lt;div&gt;&lt;ul&gt;&lt;li&gt;&lt;span style=&quot;font-size: 16px;&quot;&gt;const [showAddFriend , setShowAddFriend&amp;nbsp; ] = useState(false)&lt;/span&gt;&lt;/li&gt;&lt;li&gt;&lt;span style=&quot;font-size: 16px;&quot;&gt;&lt;br&gt;&lt;/span&gt;&lt;/li&gt;&lt;/ul&gt;&lt;/div&gt;" style="rounded=1;whiteSpace=wrap;html=1;" vertex="1" parent="WIyWlLk6GJQsqaUBKTNV-1">
          <mxGeometry x="280" y="-80" width="510" height="110" as="geometry" />
        </mxCell>
      </root>
    </mxGraphModel>
  </diagram>
</mxfile>
